PathFileType	4	(X/Y/Z)	/Users/niels/Desktop/University/Third Semester/Perception and Action/Exam/Gymnastics Motion Tracking/Code for Gym Tracking/Analyzed Data/Webcam_Backflip/id11_2_trajectory_Sports2D/id11_2_trajectory_Sports2D_px_person00.trc
DataRate	CameraRate	NumFrames	NumMarkers	Units	OrigDataRate	OrigDataStartFrame	OrigNumFrames
29.714285714285715	29.714285714285715	8	22	m	29.714285714285715	78	105
Frame#	Time	Hip			RHip			RKnee			RAnkle			RBigToe			RSmallToe			RHeel			LHip			LKnee			LAnkle			LBigToe			LSmallToe			LHeel			Neck			Head			Nose			RShoulder			RElbow			RWrist			LShoulder			LElbow			LWrist		
		X1	Y1	Z1	X2	Y2	Z2	X3	Y3	Z3	X4	Y4	Z4	X5	Y5	Z5	X6	Y6	Z6	X7	Y7	Z7	X8	Y8	Z8	X9	Y9	Z9	X10	Y10	Z10	X11	Y11	Z11	X12	Y12	Z12	X13	Y13	Z13	X14	Y14	Z14	X15	Y15	Z15	X16	Y16	Z16	X17	Y17	Z17	X18	Y18	Z18	X19	Y19	Z19	X20	Y20	Z20	X21	Y21	Z21	X22	Y22	Z22
78	2.625	0.9170981337829831	-0.577047049559501	0.0	0.9108470020812389	-0.5770705648784947	0.0	0.9193978107784603	-0.7867351942300751	0.0	0.9096760610381	-0.9953574244382697	0.0	1.0034743723112922	-1.029165663108635	0.0	0.9832926251509363	-1.0390568458134382	0.0	0.8934654742177541	-1.0242707688182833	0.0	0.9261883136100886	-0.580782223232869	0.0	0.9296077947609592	-0.7794232533752512	0.0	0.9126493638969101	-0.9690780940830177	0.0	0.9880905489221193	-0.9973156954077576	0.0	0.9812723570764944	-0.9927389215424045	0.0	0.8871472751719787	-0.9965496990020083	0.0	0.9488904913874173	-0.30155361438053935	0.0	1.0024025704378456	-0.18639819669784802	0.0	1.006872773787373	-0.26075140982493983	0.0	0.9173451893163871	-0.33116725068035974	0.0	1.0328821990953354	-0.3824126599627798	0.0	1.161806362185511	-0.3791950915588947	0.0	0.9477049962657192	-0.33643986009873567	0.0	1.0489565835098447	-0.3979770606987515	0.0	1.1554367324757338	-0.3899374313156695	0.0
79	2.658653846153846	0.9129924934333128	-0.5791056495791995	0.0	0.9084047490988377	-0.5786161850907166	0.0	0.9176421778099558	-0.7883169089576925	0.0	0.9096887592746428	-0.9979209538318373	0.0	1.0039807650727919	-1.0308389503715536	0.0	0.9840372799795076	-1.0406371334097857	0.0	0.8931733466676665	-1.0270156960961339	0.0	0.9227504013764263	-0.5823912601192722	0.0	0.9271859544952618	-0.7812027976010432	0.0	0.9115579023243412	-0.9720325745349387	0.0	0.9895372691743461	-0.9982835311394171	0.0	0.9813822274924155	-0.9940661950308048	0.0	0.8861301558114062	-0.9985443018337752	0.0	0.9519790616833772	-0.30340646598045146	0.0	1.004767406969723	-0.18731566591954346	0.0	1.00875242949839	-0.2622295543783675	0.0	0.9215960133780212	-0.3351412247911126	0.0	1.0276497338237809	-0.4080038892564141	0.0	1.1539281233308873	-0.4282376591937118	0.0	0.9483826592029039	-0.33915543933072534	0.0	1.0392166889065382	-0.4218288380136497	0.0	1.1461682122653962	-0.43083022328274845	0.0
80	2.692307692307692	0.9099931952995132	-0.5807779367121337	0.0	0.9063920294519914	-0.5800068287502629	0.0	0.9164483909189223	-0.7899257677961513	0.0	0.9099158716015696	-1.000142309901082	0.0	1.00414038810295	-1.0323475173417733	0.0	0.9842585608674276	-1.0418004201390847	0.0	0.8927965726724753	-1.0292006526193085	0.0	0.9209674478528351	-0.5836591025217451	0.0	0.9253350777652141	-0.7831429834922935	0.0	0.9109156773754178	-0.9744765411185699	0.0	0.9914205137419583	-0.9994678411092237	0.0	0.9817840402787786	-0.9954147372226763	0.0	0.8849953012851286	-0.9998866583449043	0.0	0.9560057529501881	-0.30506282832464937	0.0	1.0080844413166437	-0.1886712768359062	0.0	1.0114981142459671	-0.26379557612008764	0.0	0.9256504411716836	-0.3386964823409422	0.0	1.0191768728859845	-0.43160075376987733	0.0	1.1387579606116014	-0.47407162298017835	0.0	0.952796072578805	-0.3414741568414419	0.0	1.0283040044936962	-0.4424248625012051	0.0	1.1311318417855791	-0.46951351395461555	0.0
81	2.7259615384615383	0.9083440570904807	-0.5823631288474389	0.0	0.9050276861927802	-0.5814809862930586	0.0	0.9156747542867874	-0.791495563168587	0.0	0.9102182086709641	-1.0018423595108743	0.0	1.0040963183742804	-1.0335142601554477	0.0	0.9840912984149094	-1.0424856304722525	0.0	0.8924457627653132	-1.0307945974818866	0.0	0.9206063635465616	-0.5848247248697285	0.0	0.9242060435027302	-0.7852328379920827	0.0	0.9108138526599565	-0.9765085964483037	0.0	0.9935561431172423	-1.0013095020269593	0.0	0.9825701902993745	-0.9969092522830866	0.0	0.8842091944795553	-1.0008856904118457	0.0	0.9602204226292367	-0.30650407557284903	0.0	1.0117015662856939	-0.19022127953420617	0.0	1.0148194174787653	-0.26528145063855224	0.0	0.9288028430163124	-0.3419412285017421	0.0	1.00765831168899	-0.45244408565396277	0.0	1.1177612257279153	-0.5157091077708702	0.0	0.9592344574994955	-0.3435514715413984	0.0	1.0175264182469914	-0.4588459313587378	0.0	1.1113073733757983	-0.5049453369763505	0.0
82	2.7596153846153846	0.9080136043656526	-0.5841546021998106	0.0	0.90450344208312	-0.5832271894636684	0.0	0.91521570790351	-0.7929706443823836	0.0	0.9104479369100733	-1.003057153442762	0.0	1.0039322349265454	-1.034157015597786	0.0	0.983711918857409	-1.0427177640208818	0.0	0.8921791120312182	-1.0319132299784746	0.0	0.9211990695371007	-0.5860862977325905	0.0	0.9238792286851698	-0.7874245696869219	0.0	0.9111652144859363	-0.9783820986423916	0.0	0.9957324304421046	-1.0039853947513164	0.0	0.9836292191446575	-0.9986272487428086	0.0	0.8840003372025216	-1.0020015879131834	0.0	0.9639369318578268	-0.307707757083034	0.0	1.014921387317614	-0.19167894935609095	0.0	1.018179494620695	-0.26644233908205295	0.0	0.9308583010892165	-0.34481427701864015	0.0	0.9935438026365974	-0.46992672143309316	0.0	1.0920862668075375	-0.5521929210506418	0.0	0.9655348880188247	-0.34549135674460013	0.0	1.007195533810869	-0.4710903690731385	0.0	1.0875246134064824	-0.5361054924369326	0.0
83	2.793269230769231	0.9088013103959666	-0.5862507311783154	0.0	0.9049730941367852	-0.5852709235284429	0.0	0.9150309900057635	-0.7942811145824	0.0	0.9104811178692043	-1.003947937879354	0.0	1.0036461168983404	-1.034157594027218	0.0	0.9832321796986776	-1.0425304810288603	0.0	0.8919908821586793	-1.0327156165285798	0.0	0.9224559435028339	-0.587517894905197	0.0	0.9243689707438696	-0.789516647933608	0.0	0.9117554008710318	-0.9801729471899475	0.0	0.9976805208371455	-1.0071386521598478	0.0	0.9847041650656579	-1.0003996003979754	0.0	0.8842919562574313	-1.0035107368133394	0.0	0.9667950446307432	-0.3085964927264396	0.0	1.0173192895218008	-0.19281513102529765	0.0	1.0210327505764698	-0.26708460530289496	0.0	0.9320675533175438	-0.34709553582708713	0.0	0.9772353282438834	-0.48354412969195637	0.0	1.0622833851378022	-0.5825223764069544	0.0	0.9702862431161006	-0.34719371186514175	0.0	0.9967475293716904	-0.479617247377858	0.0	1.060688557161827	-0.5618884178459267	0.0
84	2.8269230769230766	0.9105472364711681	-0.5885588836721531	0.0	0.9065057471648372	-0.5874930807054551	0.0	0.9151518065327588	-0.7953185186296111	0.0	0.9102750047679157	-1.0045621202790855	0.0	1.0032404701986275	-1.0336071627614032	0.0	0.9826998050467242	-1.042028687885392	0.0	0.8918518109601146	-1.033228838220237	0.0	0.9244627654979601	-0.5890512477251109	0.0	0.9256489854984363	-0.7912267867411358	0.0	0.9124281582357551	-0.9817146702733033	0.0	0.9992471137927605	-1.0101338097839352	0.0	0.9856200357495887	-1.0019826965588516	0.0	0.8850686828115878	-1.0053911452816702	0.0	0.9688357922751024	-0.3090965164741616	0.0	1.018863590395734	-0.19346444398240248	0.0	1.023119172476216	-0.26711959991828554	0.0	0.9327816706734567	-0.34858284423550434	0.0	0.9593161767596738	-0.49289810406456713	0.0	1.0288846233193905	-0.6058366295018256	0.0	0.9732730024052197	-0.3484728514376027	0.0	0.9856154775429125	-0.48491614748108597	0.0	1.032536709818624	-0.5814340508299113	0.0
85	2.860576923076923	0.9132982268475726	-0.5908261737017093	0.0	0.909171974855164	-0.589625556029539	0.0	0.9156941246621513	-0.7959817731926904	0.0	0.9099220876101435	-1.0047904417787135	0.0	1.0027942434770474	-1.0327884582933893	0.0	0.9821846793469128	-1.04142322569249	0.0	0.8917606352957415	-1.0333354320120691	0.0	0.9273359470868796	-0.5904797536068268	0.0	0.9275001725973842	-0.7923763102659647	0.0	0.9131680677495421	-0.9828490379990302	0.0	1.000511671891804	-1.012569078029626	0.0	0.9864442054685792	-1.0034061872401767	0.0	0.886533932164353	-1.0074834799102317	0.0	0.9703345757410727	-0.3092478949259501	0.0	1.0198173706104312	-0.1935484565484243	0.0	1.0245637740802347	-0.26661626846894937	0.0	0.9332797316808991	-0.3491889757157615	0.0	0.9408923579624596	-0.49783221748629597	0.0	0.9930759346855951	-0.621617854094657	0.0	0.974806417176169	-0.34920801724381184	0.0	0.9736415352422475	-0.4874278922222701	0.0	1.0057060735437964	-0.5943624786995738	0.0
